<?xml version="1.0" standalone="no"?>
<!DOCTYPE svg PUBLIC "-//W3C//DTD SVG 20010904//EN"
 "http://www.w3.org/TR/2001/REC-SVG-20010904/DTD/svg10.dtd">
<svg version="1.0" xmlns="http://www.w3.org/2000/svg"
 width="1200.000000pt" height="1200.000000pt" viewBox="0 0 1200.000000 1200.000000"
 preserveAspectRatio="xMidYMid meet">
<metadata>
Created by potrace 1.14, written by Peter Selinger 2001-2017
</metadata>
<g transform="translate(0.000000,1200.000000) scale(0.100000,-0.100000)"
fill="#000000" stroke="none">
<path d="M5812 11896 c-7 -11 -151 -383 -156 -401 -1 -5 -24 -66 -50 -135
-100 -257 -116 -300 -116 -306 0 -3 -6 -20 -14 -37 -14 -31 -123 -318 -153
-402 -8 -22 -21 -54 -30 -72 -8 -17 -16 -37 -17 -45 -2 -7 -6 -22 -11 -33 -33
-85 -84 -220 -149 -392 -42 -111 -80 -212 -85 -225 -41 -106 -63 -164 -86
-228 -15 -41 -33 -88 -40 -105 -7 -16 -19 -48 -28 -70 -23 -59 -277 -728 -281
-740 -2 -5 -9 -23 -15 -40 -7 -16 -14 -34 -15 -40 -1 -5 -19 -55 -40 -110 -73
-189 -104 -270 -151 -395 -26 -69 -62 -165 -82 -215 -19 -49 -41 -106 -48
-125 -7 -19 -27 -71 -44 -115 -16 -44 -77 -206 -136 -360 -58 -154 -109 -289
-114 -300 -4 -11 -18 -45 -29 -75 -11 -30 -96 -253 -188 -495 -92 -242 -179
-474 -194 -515 -16 -41 -49 -129 -75 -195 -25 -66 -51 -133 -57 -150 -5 -16
-14 -39 -18 -50 -5 -11 -59 -153 -121 -315 -61 -162 -126 -334 -145 -382 -19
-48 -34 -90 -34 -94 0 -3 -6 -20 -14 -37 -16 -37 -22 -52 -381 -1002 -153
-401 -292 -768 -310 -815 -18 -47 -61 -159 -95 -250 -34 -91 -66 -174 -70
-185 -5 -11 -52 -135 -105 -275 -52 -140 -100 -264 -105 -275 -6 -11 -19 -45
-29 -75 -23 -64 -62 -169 -124 -330 -24 -63 -61 -160 -81 -215 -20 -55 -41
-109 -46 -120 -9 -18 -53 -134 -55 -145 -1 -3 -5 -14 -10 -25 -4 -11 -25 -67
-47 -125 -22 -58 -50 -132 -63 -165 -13 -33 -43 -112 -66 -175 -24 -63 -48
-118 -54 -122 -5 -4 -257 -7 -558 -7 -302 1 -551 -2 -554 -5 -8 -7 -10 -275
-3 -285 3 -4 617 -7 1365 -7 l1360 1 0 143 c0 79 -3 146 -8 149 -5 3 -265 5
-577 5 -439 -1 -568 2 -565 11 5 18 125 338 135 362 4 11 16 40 25 65 59 157
223 587 247 650 16 41 33 86 37 100 5 14 35 93 66 175 32 83 64 167 71 188 24
64 144 381 154 402 4 11 56 146 114 300 57 154 126 334 151 400 25 66 53 140
62 165 8 25 34 95 58 155 23 61 57 148 74 195 18 47 43 112 56 145 12 33 39
103 59 155 19 52 51 136 70 185 148 390 186 493 186 498 0 4 9 26 19 50 11 23
29 69 41 101 29 82 32 84 46 45 7 -19 49 -131 94 -249 103 -269 127 -332 150
-395 10 -27 53 -140 95 -250 43 -110 85 -222 96 -250 10 -27 27 -72 37 -100
11 -27 36 -95 57 -150 20 -55 41 -109 46 -120 9 -20 390 -1020 413 -1085 17
-46 310 -817 341 -895 13 -33 55 -143 93 -245 39 -102 93 -246 122 -320 28
-74 64 -170 80 -212 l28 -77 -531 0 c-293 0 -562 0 -599 -1 l-68 0 0 -148 0
-148 1388 0 1387 1 3 150 2 150 -566 0 -566 0 -13 35 c-29 79 -108 287 -120
315 -7 17 -36 93 -65 170 -73 196 -129 342 -150 395 -10 25 -35 90 -55 145
-20 55 -41 109 -46 120 -5 11 -56 146 -115 300 -58 154 -116 307 -129 340 -13
33 -33 87 -45 120 -12 33 -28 74 -35 90 -7 17 -25 64 -40 105 -15 41 -31 84
-36 95 -5 11 -38 99 -74 195 -37 96 -73 191 -80 210 -8 19 -32 82 -54 140 -22
58 -60 157 -84 220 -24 63 -93 243 -152 400 -59 157 -116 304 -126 327 -11 24
-19 45 -19 48 0 2 -48 129 -106 282 -59 153 -115 303 -126 333 -11 30 -24 63
-30 73 -5 10 -11 28 -14 40 -2 11 -10 35 -18 52 -21 44 -158 408 -159 420 0 9
63 179 155 415 16 41 30 80 31 85 2 6 24 64 49 130 84 216 219 570 223 585 2
8 48 132 103 275 91 238 379 994 492 1295 26 69 80 211 120 315 40 105 82 217
95 250 12 33 57 152 100 265 43 113 84 223 92 245 8 22 21 54 30 72 8 17 16
37 17 45 2 7 6 20 9 28 12 30 79 207 104 278 15 40 31 71 36 69 7 -2 37 -80
97 -257 5 -14 27 -77 50 -140 23 -63 46 -126 50 -140 5 -14 29 -83 55 -155 26
-71 69 -193 97 -270 27 -77 72 -203 100 -280 27 -77 65 -183 83 -235 19 -52
57 -160 85 -240 29 -80 59 -165 67 -190 8 -25 19 -54 24 -65 5 -11 54 -148
110 -305 55 -157 112 -316 126 -355 68 -191 129 -364 177 -500 29 -82 113
-316 186 -520 290 -813 334 -936 390 -1095 70 -200 158 -448 170 -475 4 -11
26 -72 48 -135 84 -239 214 -606 222 -625 12 -29 44 -118 46 -130 2 -5 23 -66
48 -135 24 -69 52 -147 62 -175 9 -27 21 -59 25 -70 5 -11 34 -92 64 -180 31
-88 60 -169 64 -180 5 -11 14 -33 20 -50 5 -16 67 -190 137 -385 132 -372 173
-488 178 -505 2 -5 6 -17 9 -25 6 -15 77 -215 149 -420 22 -63 44 -124 49
-135 5 -11 42 -114 83 -230 73 -208 244 -689 253 -712 4 -9 -105 -12 -459 -12
-255 0 -515 0 -578 -1 l-115 0 0 -148 0 -147 2033 -1 c1117 0 2032 2 2033 5 0
3 2 70 2 149 l2 142 -130 0 c-71 1 -324 1 -562 1 -395 0 -432 2 -438 17 -3 9
-56 157 -116 327 -61 171 -114 319 -119 330 -5 11 -38 103 -74 205 -36 102
-86 244 -111 315 -26 72 -66 184 -90 250 -23 66 -45 127 -48 135 -5 13 -127
356 -190 535 -14 39 -91 255 -172 480 -81 226 -173 484 -205 575 -32 91 -78
221 -103 290 -150 417 -201 562 -222 620 -35 102 -82 233 -135 380 -27 74 -96
270 -155 435 -164 462 -304 853 -330 925 -13 36 -105 295 -205 575 -100 281
-195 546 -212 590 -16 44 -31 87 -33 95 -2 8 -9 29 -15 45 -7 17 -34 91 -60
165 -26 74 -62 176 -80 225 -17 50 -102 286 -187 525 -160 449 -228 641 -309
865 -46 130 -114 321 -173 490 -18 50 -35 97 -38 105 -3 8 -7 20 -9 25 -1 6
-35 98 -74 205 -39 107 -73 202 -75 210 -2 8 -20 60 -40 115 -39 108 -116 322
-170 475 -19 52 -57 160 -85 240 -29 80 -67 188 -86 240 -18 52 -67 187 -107
300 l-73 205 -313 1 c-209 0 -314 -3 -319 -10z"/>
</g>
</svg>
