<svg viewBox="0 0 197.38 197.38" xmlns="http://www.w3.org/2000/svg"><g fill="#0081c4"><path d="m149.36 164.21c0 6.46 5.23 11.69 11.69 11.69s11.7-5.23 11.7-11.69-5.24-11.69-11.7-11.69-11.69 5.24-11.69 11.69zm20.27 0c0 4.74-3.85 8.59-8.59 8.59s-8.58-3.85-8.58-8.59 3.84-8.58 8.58-8.58 8.59 3.84 8.59 8.58z"/><path d="m88.26 123.62v-6.44h23.49c1.22 0 2.31-1.1 2.31-2.31v-13.25c0-1.21-1.09-2.31-2.31-2.31h-23.49v-17.51h37.92c1.34 0 2.31-1.09 2.31-2.31v-13.25c0-1.22-.97-2.31-2.31-2.31h-54.92c-1.34 0-2.31 1.09-2.31 2.31v57.26c0 6.08-3.77 9.24-7.17 9.24s-4.74-1.1-6.2-2.56c-.04-.04-.1-.06-.14-.1l-31.4-31.4 74.65-74.65 74.66 74.66-74.66 74.66-13.84-13.84s-.02.02-.04.02l-2.4-2.39c-.76-.75-2.11-.75-2.86 0l-9.04 9.04c-.75.75-.75 2.11 0 2.86l6.34 6.34s-.09.03-.14.03l21.97 21.97 98.69-98.69-98.68-98.69-98.69 98.69 45.54 45.53c2.99 2.87 8.29 6.52 16.33 6.52 14.23 0 26.39-10.23 26.39-27.13z"/><path d="m161.05 160.59c1 0 1.9.4 2.56 1.06l1.91-1.91c-1.14-1.14-2.72-1.85-4.46-1.85-3.49 0-6.31 2.83-6.31 6.31s2.83 6.31 6.31 6.31c1.74 0 3.33-.71 4.46-1.85l-1.91-1.9c-.65.65-1.55 1.06-2.56 1.06-2 0-3.62-1.62-3.62-3.62s1.62-3.62 3.62-3.62z"/></g></svg>