<svg enable-background="new 0 0 229.3 35.6" viewBox="0 0 229.3 35.6" xmlns="http://www.w3.org/2000/svg"><g fill="#7f9272"><path d="m102.7 27.4c-.2.3-.5.6-1 .9s-1.2.5-2.2.5c-.4 0-.7-.1-1.1-.2s-.7-.3-1-.6-.5-.6-.7-1.1-.3-1-.3-1.7c0-.9.2-1.7.6-2.2s.9-1 1.4-1.2c.6-.3 1.3-.5 2-.5s1.5-.1 2.2-.2v6.3zm4.5 1.4c-.3 0-.6-.1-.9-.4s-.4-.7-.4-1.2v-9.2c0-.6-.1-1.2-.2-1.9-.2-.6-.5-1.2-.9-1.7-.5-.5-1.1-.9-1.9-1.2s-1.9-.4-3.2-.4c-.9 0-1.7.1-2.4.3s-1.3.5-1.8.9-.9.8-1.2 1.3-.4 1-.4 1.5c0 .8.2 1.3.7 1.7.4.4.9.5 1.5.5.4 0 .8-.1 1.1-.2s.5-.3.6-.5l-2.1-3.5c.4-.4.9-.7 1.5-1s1.3-.4 2-.4c.5 0 .9.1 1.3.2s.8.3 1.1.6.6.6.8 1 .3.9.3 1.5v3.9c-.2 0-.4 0-.7 0-.2 0-.6 0-.9 0-.7 0-1.5.1-2.4.2s-1.8.4-2.7.7-1.6.9-2.1 1.5-.9 1.5-.9 2.5c0 1.3.4 2.3 1.2 3.2s2.1 1.2 3.8 1.2c1.3 0 2.3-.2 3.1-.6s1.3-.8 1.8-1.2c.2.7.6 1.1 1.1 1.4s1.1.4 1.7.4 1.2-.1 1.7-.4.9-.6 1.2-1l-.3-.4c-.3.5-.6.7-1.1.7"/><path d="m132.8 20.2 4.4-11.5 4.1 11.5zm28.1-7.5c-1 0-1.9.2-2.6.6s-1.3 1.1-1.7 2v-2.3h-5.2v.6h2.1v15.4h-5.1l-9-25h-1.4l-9.6 25h-2.4v.6h7.4v-.6h-3.9l3.1-7.9h9.1l2.9 7.9h-3.9v.6h18.9v-.6h-2.7v-10.6c0-.7.1-1.3.2-1.9s.4-1.2.7-1.6c.3-.5.7-.8 1.2-1.1s1.1-.4 1.8-.4c.6 0 1.2.1 1.6.4.4.2.8.6 1.1 1l-3 3.1c.1.2.3.4.6.6s.7.3 1.3.3 1.2-.2 1.7-.6.7-1.1.7-1.9c0-1.1-.4-1.9-1.1-2.5-.7-.8-1.6-1.1-2.8-1.1"/><path d="m188.5 8.5c.6 0 1.2-.2 1.6-.7.4-.4.7-1 .7-1.7s-.2-1.2-.7-1.6-1-.7-1.6-.7-1.2.2-1.6.7-.7 1-.7 1.6.2 1.2.7 1.7c.4.5 1 .7 1.6.7"/><path d="m179.2 24.9c-.2 1-.6 1.9-1 2.5s-.9 1.1-1.4 1.4-1.1.5-1.7.5c-.7 0-1.3-.2-1.8-.5s-.9-.7-1.2-1.2-.5-1.1-.7-1.7c-.1-.6-.2-1.3-.2-1.9v-5.2c0-.6.1-1.3.2-1.9s.4-1.2.7-1.7.7-.9 1.2-1.2 1.1-.4 1.8-.4c1.3 0 2.4.6 3.2 2 .8 1.3 1.2 3.2 1.2 5.8.1 1.3 0 2.5-.3 3.5m1.9-9.8c-.6-.7-1.4-1.3-2.3-1.7s-1.9-.6-2.9-.6c-1.1 0-2.1.3-2.9.8s-1.4 1.2-1.7 1.8v-11.4h-5.4v.6h2.1v21.9c0 .4 0 .8-.1 1.1 0 .3-.1.6-.2.8s-.2.4-.3.6-.2.4-.4.6l.5.3c.3-.5.6-.8.9-1.1s.8-.4 1.3-.4 1 .1 1.4.2.8.3 1.2.5.8.4 1.3.5 1.1.2 1.8.2c1.1 0 2.1-.2 3-.6s1.7-1 2.4-1.7 1.2-1.7 1.6-2.8.6-2.4.6-3.9c0-1.2-.2-2.2-.5-3.2s-.8-1.8-1.4-2.5"/><path d="m26.1 24.6h-6.1v-.4h1.7l-5-14-2.5 6.5 2.9 7.4h1.7v.4h-4.2v-.4h1.8l-2.5-6.6-2.5 6.6h1.7v.4h-4.1v-.4h1.7l6.6-17.1h.9l6.2 17.2h1.7zm-8.5-24c-9.4 0-17 7.6-17 17s7.6 16.9 16.9 16.9 16.9-7.6 16.9-16.9-7.5-17-16.8-17"/><path d="m68 27.4c-.2.3-.5.6-1 .9s-1.2.5-2.2.5c-.4 0-.7-.1-1.1-.2s-.7-.3-1-.6-.5-.6-.7-1.1-.3-1-.3-1.7c0-.9.2-1.7.6-2.2s.9-1 1.4-1.2c.6-.3 1.3-.5 2-.5.7-.1 1.5-.1 2.2-.2zm4.6 1.4c-.3 0-.6-.1-.9-.4s-.4-.7-.4-1.2v-9.2c0-.6-.1-1.2-.3-1.9-.2-.6-.5-1.2-.9-1.7s-1.1-.9-1.9-1.2-1.9-.4-3.2-.4c-.9 0-1.7.1-2.4.3s-1.3.5-1.8.9-.9.8-1.2 1.3-.4 1-.4 1.5c0 .8.2 1.3.7 1.7s.9.5 1.5.5c.4 0 .8-.1 1.1-.2s.5-.3.6-.5l-2.1-3.5c.4-.4.9-.7 1.5-1s1.3-.4 2-.4c.5 0 .9.1 1.3.2s.8.3 1.1.6.6.6.8 1 .3.9.3 1.5v3.9c-.2 0-.4 0-.7 0-.2 0-.6 0-.9 0-.7 0-1.5.1-2.4.2s-1.8.4-2.7.7-1.6.9-2.1 1.5-.9 1.5-.9 2.5c0 1.3.4 2.3 1.2 3.2s2.1 1.2 3.8 1.2c1.3 0 2.3-.2 3.1-.6s1.3-.8 1.8-1.2c.2.7.6 1.1 1.1 1.4s1.1.4 1.7.4 1.2-.1 1.7-.4.9-.6 1.2-1l-.3-.4c-.3.5-.7.7-1 .7"/><path d="m89.6 28.8c-.5 0-1-.2-1.4-.7s-.6-1.2-.6-2.2v-21.9h-14.4v.6h2.1v20.4c0 .9.1 1.7.3 2.4s.5 1.1.9 1.5.8.6 1.3.8 1 .2 1.5.2c.7 0 1.3-.1 1.9-.5s1.1-.7 1.5-1.3l-.3-.3c-.5.6-1.1 1-1.8 1-.5 0-1-.2-1.4-.7s-.6-1.2-.6-2.2v-21.3h5.7v20.4c0 .9.1 1.7.3 2.4s.5 1.1.9 1.5.8.6 1.3.8 1 .2 1.5.2c.7 0 1.3-.1 1.9-.5s1.1-.7 1.5-1.3l-.3-.3c-.5.7-1.1 1-1.8 1"/><path d="m60.5 8.4c0-.5-.1-1-.3-1.5s-.6-.9-1-1.3c-.5-.4-1.1-.7-1.8-.9s-1.6-.3-2.6-.3h-13.2v.6h3.2v24h-3.2v.6h10v-.6h-3.2v-12h7.7v-.6h-7.7v-11.4h6.5c1 0 1.7.1 2.3.3s1.1.6 1.5 1.2l-3.1 4.1c.2.2.4.3.7.5s.7.2 1.2.2c.9 0 1.6-.2 2.2-.7.5-.5.8-1.2.8-2.2"/><path d="m116.2 19.7c-1.3-.4-2.3-.9-3-1.4s-1-1.2-1-2.2c0-.8.4-1.5 1.1-2s1.6-.8 2.7-.8c1 0 1.8.2 2.4.5s1.1.7 1.4 1.1l-2.4 2.6c.1.1.3.3.6.5s.7.2 1.1.2c.5 0 .9-.2 1.3-.5s.6-.9.6-1.6c0-.4-.1-.8-.3-1.2s-.5-.8-1-1.2c-.4-.4-1-.6-1.6-.9-.7-.2-1.5-.3-2.4-.3s-1.6.1-2.3.3-1.3.5-1.9 1c-.5.4-1 .9-1.3 1.5s-.4 1.3-.4 2.1c0 1.3.4 2.3 1.3 3s2.1 1.4 3.6 1.9c1.7.6 2.8 1.1 3.5 1.6.6.5 1 1.2 1 2 0 .5-.1.9-.4 1.2s-.5.7-.9.9-.8.5-1.3.6-1.1.2-1.6.2c-.7 0-1.4-.1-2.2-.4s-1.4-.6-1.9-1.1l2.5-2.6c-.1-.1-.3-.3-.6-.5s-.6-.2-1.1-.2-.9.2-1.3.5c-.4.4-.6.9-.6 1.7 0 .6.2 1 .5 1.5.3.4.7.8 1.2 1.1s1.1.5 1.8.6 1.4.2 2.1.2c.9 0 1.8-.1 2.6-.4.8-.2 1.5-.6 2-1 .6-.5 1-1 1.3-1.6s.5-1.3.5-2.1c0-1.2-.4-2.2-1.3-3-1-.5-2.4-1.2-4.3-1.8"/><path d="m190.2 13h-5.3v.6h2.1v15.4h-2.1v.6h7.4v-.6h-2v-16z"/><path d="m223 29.3c.6.4 1.2.6 2 .6.6 0 1.2-.1 1.7-.4s.9-.6 1.2-1l-.3-.4c-.3.4-.7.6-1.1.6-.3 0-.6-.1-.9-.4s-.4-.7-.4-1.2v-14.1h-5.3v.6h2.1v10.7c0 .6-.1 1.2-.2 1.8s-.4 1.1-.7 1.5-.7.8-1.2 1c-.5.3-1.1.4-1.7.4-.7 0-1.2-.1-1.6-.4s-.7-.6-.9-1-.4-.9-.4-1.4c-.1-.5-.1-1-.1-1.5v-11.7h-5.3v.6h2.1v10.4c0 .8.1 1.6.2 2.3s.5 1.4.9 1.9 1 1 1.7 1.3 1.6.5 2.7.5c.7 0 1.4-.1 1.9-.3s1-.5 1.4-.7c.4-.3.7-.6.9-.9s.4-.6.5-.8c-.1.9.2 1.6.8 2"/><path d="m207.9 24.1h-.6c-.1 1.6-.4 2.8-1.1 3.6-.6.9-1.6 1.3-2.8 1.3h-5.9l10.8-15.7v-.3h-9.9c-.5 0-1 .1-1.5.2s-.9.3-1.3.5-.7.5-.9.9-.3.8-.3 1.3c0 .6.2 1.1.6 1.4.4.4.9.6 1.4.6.4 0 .7 0 .9-.2s.4-.2.6-.4l-1.4-3.3c.4-.2.9-.3 1.5-.4s1.2-.1 2-.1h4.6l-10.6 15.6v.4h14z"/></g></svg>